<svg xmlns="http://www.w3.org/2000/svg"  viewBox="0 0 30 30" width="30px" height="30px"><path fill="#8b75a1" d="M17.382,3L17.382,3l0.5,1h-5.764l0.5-1H17.382 M17.382,2h-4.764c-0.379,0-0.725,0.214-0.894,0.553 L11,4v1h8V4l-0.724-1.447C18.107,2.214,17.761,2,17.382,2L17.382,2z"/><path fill="#dcd5f2" d="M7,27.5c-0.827,0-1.5-0.673-1.5-1.5V6.5h19V26c0,0.827-0.673,1.5-1.5,1.5H7z"/><path fill="#8b75a1" d="M24,7v19c0,0.551-0.449,1-1,1H7c-0.551,0-1-0.449-1-1V7H24 M25,6H5v20c0,1.105,0.895,2,2,2h16 c1.105,0,2-0.895,2-2V6L25,6z"/><path fill="#dcd5f2" d="M3.5,6.5V5c0-0.276,0.224-0.5,0.5-0.5h22c0.276,0,0.5,0.224,0.5,0.5v1.5H3.5z"/><path fill="#8b75a1" d="M26 5v1H4V5H26M26 4H4C3.448 4 3 4.448 3 5v2h24V5C27 4.448 26.552 4 26 4L26 4zM17 9H18V25H17zM12 9H13V25H12zM8 9H9V25H8zM21 9H22V25H21z"/></svg>